<?xml version="1.0" encoding="UTF-8" standalone="no"?>
<svg
   xmlns:dc="http://purl.org/dc/elements/1.1/"
   xmlns:cc="http://creativecommons.org/ns#"
   xmlns:rdf="http://www.w3.org/1999/02/22-rdf-syntax-ns#"
   xmlns:svg="http://www.w3.org/2000/svg"
   xmlns="http://www.w3.org/2000/svg"
   viewBox="0 0 243.48 41.053333"
   height="41.053333"
   width="243.48"
   xml:space="preserve"
   id="svg2"
   version="1.1"><metadata
     id="metadata8"><rdf:RDF><cc:Work
         rdf:about=""><dc:format>image/svg+xml</dc:format><dc:type
           rdf:resource="http://purl.org/dc/dcmitype/StillImage" /></cc:Work></rdf:RDF></metadata><defs
     id="defs6" /><g
     transform="matrix(1.3333333,0,0,-1.3333333,0,41.053333)"
     id="g10"><g
       transform="scale(0.1)"
       id="g12"><path
         id="path14"
         style="fill:#231f20;fill-opacity:1;fill-rule:nonzero;stroke:none"
         d="m 1580.38,306.535 -27.42,-75.558 h 41.82 l 10.27,28.976 40.88,0.047 -0.06,-207.0898 -23.15,-0.0469 -16.81,-46.53517 114.96,-0.09766 17.32,46.63283 -32.26,0.0976 -0.04,206.9611 h 48.1 l -0.17,-28.887 29.02,0.039 27.35,75.547 -229.81,-0.086" /><path
         id="path16"
         style="fill:#231f20;fill-opacity:1;fill-rule:nonzero;stroke:none"
         d="m 1117.06,306.582 -17.28,-46.777 29.25,0.097 V 124.121 c 0,-24.9491 -4.53,-38.8358 -16.75,-51.2108 -9.61,-9.7461 -25.9,-15.7891 -42.56,-15.7891 -20.24,0 -38.32,6.7852 -49.68,18.5625 -11.38,11.2812 -16.91,29.8754 -16.91,56.8944 l -0.05,173.977 -84.728,-0.207 -17.247,-46.582 36.09,0.234 V 130.762 C 937.195,9.43359 1031.83,0 1060.81,0 c 75,0 123.46,48.4375 123.46,123.398 l 0.29,136.407 h 21.52 l 16.76,46.777 h -105.78" /><path
         id="path18"
         style="fill:#231f20;fill-opacity:1;fill-rule:nonzero;stroke:none"
         d="m 1526.44,260.051 0.19,-253.84006 -35.41,-0.01953 c 0,0 -164.82,173.67159 -175.88,185.32459 0.04,-24.571 -0.1,-138.6722 -0.1,-138.6722 h 32.5 L 1330.87,5.99609 h -106.31 l 16.95,46.84771 h 18.28 V 259.805 h -38.73 l 16.82,46.777 h 65.25 c 0,0 126,-131.453 169.71,-177.676 0,14.211 -0.13,130.899 -0.13,130.899 h -31.63 l 16.66,46.914 h 108.85 l -16.81,-46.914 -23.34,0.246" /><path
         id="path20"
         style="fill:#231f20;fill-opacity:1;fill-rule:nonzero;stroke:none"
         d="m 1807.9,250.813 h 4.53 c 1.51,0 4.04,-0.411 4.04,-3.176 0,-2.774 -2.65,-3.008 -5.13,-3.008 h -3.44 z m 7.38,-7.305 c 0.26,0.097 0.47,0.234 0.71,0.371 0.72,0.43 1.29,0.945 1.66,1.641 0.13,0.242 0.21,0.527 0.29,0.82 0.14,0.437 0.45,0.75 0.45,1.258 0,3.312 -1.88,4.922 -5.72,4.922 h -6.63 v -17.45 h 1.86 v 7.84 h 4.12 l 5.1,-7.84 h 2.15 l -5.1,7.871 c 0.47,0.098 0.7,0.411 1.11,0.567" /><path
         id="path22"
         style="fill:#231f20;fill-opacity:1;fill-rule:nonzero;stroke:none"
         d="m 1811.53,230.84 c -7.16,0 -12.79,5.683 -12.79,12.941 0,7.371 5.5,12.938 12.79,12.938 7.23,0 12.68,-5.547 12.68,-12.891 0,-7.285 -5.57,-12.988 -12.68,-12.988 z m -0.07,27.59 c -8.05,0 -14.59,-6.575 -14.59,-14.649 0,-8.066 6.54,-14.621 14.59,-14.621 8.08,0 14.64,6.555 14.64,14.621 0,8.074 -6.56,14.649 -14.64,14.649" /><path
         id="path24"
         style="fill:#231f20;fill-opacity:1;fill-rule:nonzero;stroke:none"
         d="m 0,266.621 v 40.274 h 12.2852 v -39.774 c 0,-13 6.6992,-19.992 17.6953,-19.992 10.8867,0 17.5898,6.594 17.5898,19.492 v 40.274 h 12.293 v -39.676 c 0,-20.891 -11.7969,-31.387 -30.086,-31.387 C 11.5938,235.832 0,246.328 0,266.621" /><path
         id="path26"
         style="fill:#231f20;fill-opacity:1;fill-rule:nonzero;stroke:none"
         d="M 80.6836,306.895 H 92.082 l 37.481,-48.368 v 48.368 h 12.085 V 236.934 H 131.355 L 92.7734,286.711 V 236.934 H 80.6836 v 69.961" /><path
         id="path28"
         style="fill:#231f20;fill-opacity:1;fill-rule:nonzero;stroke:none"
         d="m 164.277,306.895 h 12.293 v -69.961 h -12.293 v 69.961" /><path
         id="path30"
         style="fill:#231f20;fill-opacity:1;fill-rule:nonzero;stroke:none"
         d="m 193.23,306.895 h 13.594 l 21.086,-53.77 20.996,53.77 h 13.289 l -29.082,-70.457 h -10.8 l -29.083,70.457" /><path
         id="path32"
         style="fill:#231f20;fill-opacity:1;fill-rule:nonzero;stroke:none"
         d="M 278.125,306.895 H 330 v -10.997 h -39.578 v -18.183 h 35.074 V 266.719 H 290.422 V 247.93 h 40.074 v -10.996 h -52.371 v 69.961" /><path
         id="path34"
         style="fill:#231f20;fill-opacity:1;fill-rule:nonzero;stroke:none"
         d="m 379.316,272.219 c 8.797,0 14.395,4.597 14.395,11.687 v 0.207 c 0,7.489 -5.398,11.59 -14.492,11.59 h -17.891 v -23.484 z m -30.285,34.676 h 31.184 c 8.801,0 15.691,-2.598 20.195,-6.993 3.692,-3.797 5.789,-8.992 5.789,-15.097 v -0.196 c 0,-11.492 -6.89,-18.386 -16.687,-21.191 l 18.886,-26.484 h -14.492 l -17.187,24.386 h -0.196 -15.195 v -24.386 h -12.297 v 69.961" /><path
         id="path36"
         style="fill:#231f20;fill-opacity:1;fill-rule:nonzero;stroke:none"
         d="m 420.535,247.129 7.395,8.801 c 6.699,-5.801 13.398,-9.102 22.09,-9.102 7.597,0 12.39,3.496 12.39,8.797 v 0.195 c 0,5 -2.793,7.696 -15.789,10.696 -14.891,3.601 -23.281,7.996 -23.281,20.886 v 0.207 c 0,11.993 9.988,20.282 23.887,20.282 10.195,0 18.293,-3.094 25.378,-8.789 l -6.589,-9.297 c -6.297,4.699 -12.598,7.199 -18.996,7.199 -7.196,0 -11.395,-3.703 -11.395,-8.301 v -0.195 c 0,-5.403 3.203,-7.793 16.594,-10.996 14.793,-3.594 22.488,-8.899 22.488,-20.489 v -0.195 c 0,-13.098 -10.293,-20.89 -24.98,-20.89 -10.704,0 -20.789,3.691 -29.192,11.191" /><path
         id="path38"
         style="fill:#231f20;fill-opacity:1;fill-rule:nonzero;stroke:none"
         d="m 493.848,306.895 h 12.297 v -69.961 h -12.297 v 69.961" /><path
         id="path40"
         style="fill:#231f20;fill-opacity:1;fill-rule:nonzero;stroke:none"
         d="m 545.996,295.5 h -22.187 v 11.395 h 56.777 V 295.5 H 558.391 V 236.934 H 545.996 V 295.5" /><path
         id="path42"
         style="fill:#231f20;fill-opacity:1;fill-rule:nonzero;stroke:none"
         d="m 618.105,264.523 -27.785,42.372 h 14.493 l 19.589,-30.985 19.797,30.985 h 14.094 l -27.797,-42.079 v -27.882 h -12.391 v 27.589" /><path
         id="path44"
         style="fill:#231f20;fill-opacity:1;fill-rule:nonzero;stroke:none"
         d="m 99.668,204.719 h 12.297 v -58.77 h 36.773 v -11.191 h -49.07 v 69.961" /><path
         id="path46"
         style="fill:#231f20;fill-opacity:1;fill-rule:nonzero;stroke:none"
         d="m 162.188,204.719 h 12.292 v -69.961 h -12.292 v 69.961" /><path
         id="path48"
         style="fill:#231f20;fill-opacity:1;fill-rule:nonzero;stroke:none"
         d="m 229.617,145.656 c 8.403,0 13.496,3.289 13.496,9.59 v 0.203 c 0,5.891 -4.695,9.395 -14.39,9.395 H 209.23 v -19.188 z m -3.594,29.578 c 7.891,0 13.196,3.094 13.196,9.493 v 0.207 c 0,5.496 -4.406,8.894 -12.293,8.894 H 209.23 v -18.594 z m -28.882,29.485 h 31.382 c 7.993,0 14.29,-2.199 18.293,-6.192 3.094,-3.105 4.7,-6.906 4.7,-11.601 v -0.196 c 0,-8.402 -4.805,-12.89 -10,-15.597 8.191,-2.793 13.894,-7.488 13.894,-16.992 v -0.196 c 0,-12.492 -10.293,-19.187 -25.89,-19.187 h -32.379 v 69.961" /><path
         id="path50"
         style="fill:#231f20;fill-opacity:1;fill-rule:nonzero;stroke:none"
         d="m 303.516,170.039 c 8.797,0 14.394,4.602 14.394,11.691 v 0.204 c 0,7.492 -5.398,11.593 -14.492,11.593 h -17.891 v -23.488 z m -30.286,34.68 h 31.184 c 8.801,0 15.691,-2.598 20.195,-6.992 3.692,-3.801 5.789,-8.997 5.789,-15.098 v -0.195 c 0,-11.496 -6.89,-18.391 -16.687,-21.192 l 18.887,-26.484 h -14.493 l -17.187,24.383 h -0.195 -15.196 V 134.758 H 273.23 v 69.961" /><path
         id="path52"
         style="fill:#231f20;fill-opacity:1;fill-rule:nonzero;stroke:none"
         d="m 385.82,162.539 -12.09,27.988 -11.992,-27.988 z m -17.59,42.676 h 11.399 l 30.781,-70.457 h -12.988 l -7.102,16.894 h -33.086 l -7.183,-16.894 h -12.602 l 30.781,70.457" /><path
         id="path54"
         style="fill:#231f20;fill-opacity:1;fill-rule:nonzero;stroke:none"
         d="m 452.629,170.039 c 8.797,0 14.391,4.602 14.391,11.691 v 0.204 c 0,7.492 -5.399,11.593 -14.493,11.593 h -17.886 v -23.488 z m -30.285,34.68 h 31.179 c 8.801,0 15.696,-2.598 20.2,-6.992 3.687,-3.801 5.789,-8.997 5.789,-15.098 v -0.195 c 0,-11.496 -6.895,-18.391 -16.692,-21.192 l 18.891,-26.484 h -14.492 l -17.192,24.383 h -0.191 -15.195 v -24.383 h -12.297 v 69.961" /><path
         id="path56"
         style="fill:#231f20;fill-opacity:1;fill-rule:nonzero;stroke:none"
         d="m 499.246,204.719 h 12.297 v -69.961 h -12.297 v 69.961" /><path
         id="path58"
         style="fill:#231f20;fill-opacity:1;fill-rule:nonzero;stroke:none"
         d="m 534.199,204.719 h 51.875 v -10.996 h -39.582 v -18.188 h 35.078 v -10.996 h -35.078 v -18.785 h 40.078 v -10.996 h -52.371 v 69.961" /><path
         id="path60"
         style="fill:#231f20;fill-opacity:1;fill-rule:nonzero;stroke:none"
         d="m 600.41,144.953 7.395,8.797 c 6.699,-5.801 13.394,-9.102 22.09,-9.102 7.593,0 12.39,3.497 12.39,8.801 v 0.196 c 0,5 -2.793,7.695 -15.793,10.691 -14.89,3.605 -23.277,8 -23.277,20.891 v 0.203 c 0,11.992 9.988,20.285 23.887,20.285 10.195,0 18.289,-3.098 25.378,-8.789 l -6.589,-9.297 c -6.301,4.695 -12.598,7.195 -18.996,7.195 -7.2,0 -11.399,-3.703 -11.399,-8.301 v -0.195 c 0,-5.398 3.203,-7.793 16.594,-10.996 14.797,-3.594 22.488,-8.894 22.488,-20.488 v -0.196 c 0,-13.093 -10.293,-20.886 -24.976,-20.886 -10.707,0 -20.793,3.691 -29.192,11.191" /><path
         id="path62"
         style="fill:#231f20;fill-opacity:1;fill-rule:nonzero;stroke:none"
         d="m 766.262,306.719 c -2.285,-35.293 -11.953,-70.059 -28.965,-102.324 -2.649,-5 -5.649,-9.715 -8.574,-14.493 V 151.77 c 34.746,44.031 55.781,98.132 59.199,154.949 h -21.66" /><path
         id="path64"
         style="fill:#231f20;fill-opacity:1;fill-rule:nonzero;stroke:none"
         d="m 728.723,306.719 v -70.645 c 9.004,22.383 14.57,46.203 16.316,70.645 h -16.316" /><path
         id="path66"
         style="fill:#231f20;fill-opacity:1;fill-rule:nonzero;stroke:none"
         d="m 781.008,207.941 c 0.64,1.61 2.222,2.696 3.965,2.696 0.496,0 0.996,-0.09 1.48,-0.274 l 5,-1.894 c 1.25,-0.469 2.168,-1.457 2.539,-2.688 0.278,-0.898 0.254,-1.836 -0.074,-2.734 -0.605,-1.649 -2.207,-2.754 -3.969,-2.754 -0.484,0 -0.972,0.078 -1.465,0.254 l -5.054,1.914 c -2.153,0.852 -3.227,3.223 -2.422,5.48 z m -31.02,-92.363 -4.004,3.426 c -1.929,1.691 -2.129,4.648 -0.464,6.582 0.875,1.035 2.168,1.641 3.535,1.641 1.113,0 2.207,-0.399 3.047,-1.122 l 3.921,-3.378 c 9.946,12.136 18.989,24.968 27.012,38.394 -0.191,0.082 -0.39,0.051 -0.562,0.149 l -4.707,2.597 c -2.461,1.36 -3.364,4.473 -2.036,6.934 0.903,1.64 2.637,2.668 4.512,2.668 0.844,0 1.684,-0.207 2.461,-0.625 l 4.707,-2.59 c 0.219,-0.125 0.371,-0.32 0.551,-0.469 4.727,8.496 9.059,17.188 12.969,26.086 -2.141,0.848 -3.227,3.27 -2.422,5.418 0.64,1.633 2.222,2.734 3.98,2.734 0.5,0 1.02,-0.097 1.489,-0.281 l 0.347,-0.129 c 6.406,15.625 11.504,31.797 15.371,48.34 -0.777,-0.808 -1.836,-1.348 -3.007,-1.348 l -0.504,0.032 -0.161,0.027 -5.293,0.82 c -2.3,0.371 -3.882,2.532 -3.535,4.844 0.332,2.07 2.114,3.567 4.2,3.567 l 0.492,-0.02 0.156,-0.031 5.27,-0.821 c 1.566,-0.234 2.855,-1.367 3.339,-2.839 3.594,16.55 5.981,33.425 6.887,50.535 h -26.98 C 798.23,265.93 787.195,225.723 767.527,188.438 756.711,167.91 743.645,149.063 728.723,132.07 V 93.3984 c 7.461,7.0706 14.57,14.4726 21.265,22.1796" /><path
         id="path68"
         style="fill:#231f20;fill-opacity:1;fill-rule:nonzero;stroke:none"
         d="m 820.242,152.207 c 1.153,-0.664 2.016,-1.738 2.387,-2.969 0.406,-1.355 0.254,-2.773 -0.41,-3.965 -0.91,-1.621 -2.602,-2.636 -4.453,-2.636 -0.879,0 -1.719,0.226 -2.485,0.644 l -4.707,2.559 c -2.422,1.348 -3.34,4.445 -2.011,6.965 0.917,1.629 2.636,2.644 4.496,2.644 0.836,0 1.675,-0.203 2.476,-0.625 z m -6.773,-84.9687 c -0.879,-1.0469 -2.192,-1.6328 -3.574,-1.6328 -1.094,0 -2.168,0.3906 -3.032,1.1133 l -4.019,3.4765 c -0.981,0.8125 -1.567,1.9453 -1.645,3.1953 -0.113,1.2383 0.293,2.4492 1.114,3.3946 0.902,1.0468 2.191,1.6328 3.554,1.6328 1.098,0 2.168,-0.3907 3.051,-1.1328 l 4.004,-3.4571 c 0.664,-0.539 1.172,-1.2695 1.48,-2.1953 0.469,-1.5351 0.102,-3.1836 -0.933,-4.3945 z m -14.239,12.168 c -0.863,-1.0274 -2.167,-1.6133 -3.515,-1.6133 -1.152,0 -2.231,0.4101 -3.047,1.1328 l -4.047,3.4765 c -0.953,0.8125 -1.519,1.9532 -1.617,3.2032 -0.117,1.25 0.293,2.4531 1.094,3.3789 0.879,1.0469 2.183,1.6406 3.55,1.6406 1.133,0 2.231,-0.4102 3.047,-1.1406 l 4.004,-3.4492 c 0.703,-0.586 1.25,-1.3868 1.446,-2.1485 0.531,-1.5898 0.175,-3.2695 -0.915,-4.4804 z M 791.672,6.86719 c -0.766,-0.63672 -1.699,-0.98828 -2.695,-0.98828 -1.25,0 -2.446,0.55859 -3.262,1.52343 l -4.57,5.49996 c -0.723,0.8594 -1.079,2 -0.957,3.125 0.117,1.1211 0.664,2.129 1.523,2.8321 0.762,0.625 1.719,0.9648 2.691,0.9648 1.25,0 2.446,-0.5469 3.266,-1.5234 l 4.605,-5.5664 c 0.356,-0.4571 0.586,-0.8985 0.762,-1.4336 0.449,-1.66017 -0.113,-3.41799 -1.363,-4.43361 z m -16.211,12.87891 -4.594,5.4805 c -1.48,1.7968 -1.25,4.4023 0.551,5.9648 0.762,0.6367 1.719,0.9766 2.691,0.9766 1.274,0 2.461,-0.5547 3.262,-1.5235 l 4.649,-5.5664 c 0.238,-0.332 0.585,-0.8593 0.683,-1.3476 0.551,-1.6524 0.024,-3.4375 -1.308,-4.5586 -0.758,-0.6172 -1.715,-0.9492 -2.696,-0.9492 -1.265,0 -2.437,0.5586 -3.238,1.5234 z m -10.273,12.3242 -4.512,5.461 c -0.742,0.8593 -1.098,1.9531 -1.028,3.0742 0.086,1.1328 0.594,2.1601 1.536,2.9297 0.742,0.625 1.714,0.9687 2.695,0.9687 1.226,0 2.41,-0.5508 3.25,-1.5156 l 4.582,-5.5469 c 0.293,-0.3633 0.625,-0.8476 0.777,-1.4141 0.481,-1.6523 -0.054,-3.4296 -1.367,-4.5117 -0.738,-0.6172 -1.695,-0.957 -2.691,-0.957 -1.235,0 -2.407,0.5469 -3.242,1.5117 z m -10.254,12.3438 -4.575,5.4882 c -1.48,1.7774 -1.226,4.4454 0.547,5.9766 0.782,0.6172 1.739,0.957 2.715,0.957 1.234,0 2.426,-0.5468 3.266,-1.5234 l 4.644,-5.6055 c 0.293,-0.4375 0.532,-0.8867 0.688,-1.3476 0.484,-1.6211 -0.063,-3.4258 -1.352,-4.4922 -0.738,-0.625 -1.695,-0.9766 -2.691,-0.9766 -1.25,0 -2.446,0.5586 -3.242,1.5235 z m -10.286,12.3242 -4.582,5.5078 c -0.703,0.8789 -1.035,1.9922 -0.918,3.125 0.098,1.1328 0.665,2.1289 1.465,2.7539 0.742,0.6836 1.723,1.0547 2.739,1.0547 1.265,0 2.461,-0.5664 3.218,-1.543 l 4.59,-5.4687 c 0.395,-0.4688 0.664,-0.9844 0.766,-1.4258 0.547,-1.6406 0,-3.4649 -1.328,-4.5313 -0.743,-0.6328 -1.719,-0.9765 -2.7,-0.9765 -1.226,0 -2.418,0.539 -3.25,1.5039 z m 29.27,44.4527 c 0.879,1.036 2.168,1.622 3.531,1.622 1.114,0 2.18,-0.391 3.071,-1.133 l 4.023,-3.4769 c 0.66,-0.5547 1.148,-1.289 1.441,-2.1758 0.493,-1.5742 0.102,-3.2343 -0.918,-4.3671 -0.855,-1.0743 -2.168,-1.6797 -3.55,-1.6797 -1.118,0 -2.192,0.3906 -3.047,1.1133 l -4.082,3.5156 c -1.938,1.6914 -2.129,4.6484 -0.469,6.5816 z m 46.055,96.192 c 0.515,0 1.035,-0.098 1.504,-0.274 l 5.015,-1.882 c 0.981,-0.372 1.684,-1.145 2.168,-2.102 v 50.605 c -6.324,-24.98 -15.625,-49.394 -27.969,-72.773 -1.171,-2.234 -2.476,-4.394 -3.687,-6.602 0.723,-0.046 1.465,-0.183 2.09,-0.535 l 4.668,-2.57 c 1.172,-0.613 2.066,-1.699 2.461,-2.969 0.425,-1.347 0.254,-2.812 -0.41,-3.984 -0.918,-1.641 -2.622,-2.656 -4.473,-2.656 -0.871,0 -1.723,0.226 -2.461,0.644 l -4.691,2.559 c -0.68,0.371 -1.227,0.918 -1.661,1.535 C 783.84,141.719 774.07,127.93 763.43,115 c 1.05,-0.039 2.058,-0.41 2.879,-1.113 l 4.05,-3.496 c 0.688,-0.606 1.172,-1.368 1.379,-2.11 0.52,-1.582 0.188,-3.261 -0.886,-4.472 -0.879,-1.036 -2.153,-1.641 -3.516,-1.641 -1.113,0 -2.191,0.402 -3.09,1.133 l -4.019,3.484 c -0.825,0.695 -1.309,1.653 -1.504,2.707 -8.828,-10.2537 -18.254,-19.9295 -28.254,-28.9451 0.754,0.6054 1.672,0.9765 2.629,0.9765 1.25,0 2.437,-0.5664 3.257,-1.5429 l 4.524,-5.4688 c 0.32,-0.3594 0.574,-0.8008 0.832,-1.4765 0.508,-1.6563 -0.063,-3.4258 -1.328,-4.4493 -0.766,-0.6562 -1.723,-1.0156 -2.738,-1.0156 -1.266,0 -2.442,0.5547 -3.243,1.5117 l -4.589,5.5078 c -0.719,0.879 -1.075,1.9844 -0.958,3.1055 0.122,1.0274 0.61,1.9141 1.313,2.5781 -0.473,-0.4296 -0.98,-0.8398 -1.445,-1.2695 V 5.55859 h 62.476 c 0.219,0.33985 0.434,0.6836 0.727,0.94532 0.777,0.63672 1.758,0.98828 2.73,0.98828 1.25,0 2.446,-0.54688 3.242,-1.51563 l 0.356,-0.41797 H 828.66 V 57.0781 c -0.152,-0.75 -0.484,-1.4609 -1.015,-2.0664 -0.899,-1.0351 -2.184,-1.6211 -3.551,-1.6211 -1.106,0 -2.168,0.3907 -3.047,1.1133 l -4.067,3.5039 c -1.929,1.7188 -2.125,4.6797 -0.464,6.5938 0.894,1.0234 2.183,1.6289 3.535,1.6289 1.109,0 2.207,-0.4102 3.047,-1.1328 l 4.05,-3.4571 c 0.696,-0.5859 1.204,-1.3672 1.415,-2.1679 0.175,-0.586 0.16,-1.1993 0.097,-1.8086 V 135.91 l -1.656,0.926 c -2.484,1.348 -3.383,4.453 -2.031,6.934 0.757,1.394 2.156,2.187 3.687,2.441 v 43.203 c -0.722,-1.418 -2.066,-2.383 -3.672,-2.383 -0.508,0 -0.996,0.098 -1.504,0.274 l -4.976,1.914 c -2.168,0.801 -3.305,3.242 -2.485,5.488 0.665,1.621 2.207,2.676 3.95,2.676" /></g></g></svg>